<svg width="132" height="34" viewBox="0 0 132 34" fill="none" xmlns="http://www.w3.org/2000/svg">
<rect width="132" height="34" rx="8" fill="#003DAD"/>
<path fill-rule="evenodd" clip-rule="evenodd" d="M40.9199 26.521H36L38.3462 14.4792H42.3989C43.0962 14.4792 43.708 14.5471 44.2183 14.7336C45.3232 15.1238 45.9692 16.0227 45.9692 17.2097C45.9692 18.4819 45.187 19.635 43.9971 20.1777V20.2117C44.9663 20.5679 45.459 21.4839 45.459 22.5522C45.459 24.4009 44.3032 25.6899 42.7559 26.2327C42.1782 26.436 41.5493 26.521 40.9199 26.521ZM40.165 16.3618L39.5698 19.3977H41.8721C42.9429 19.3977 43.708 18.5327 43.708 17.498C43.708 16.8367 43.3169 16.3618 42.4331 16.3618H40.165ZM39.23 21.1616L38.5498 24.6384H41.0732C41.4473 24.6384 41.7871 24.5706 42.0762 24.418C42.7559 24.0618 43.2148 23.3325 43.2148 22.5015C43.2148 21.7043 42.688 21.1616 41.7529 21.1616H39.23Z" fill="white"/>
<path d="M72.6909 26.521H70.5317L72.8779 14.4792H75.0366L73.7622 21.021C75.519 20.7207 76.96 19.4814 77.5308 17.8438H79.9512C79.4229 19.582 78.0542 21.0391 76.3735 21.908C76.4219 23.5901 77.5327 24.6099 78.9341 24.8647L78.5303 26.9451C76.4507 26.5076 74.8628 24.7507 74.5879 22.5745C74.2041 22.666 73.8149 22.7273 73.4243 22.7556L72.6909 26.521Z" fill="white"/>
<path fill-rule="evenodd" clip-rule="evenodd" d="M79.8281 23.0022C79.8281 25.0933 81.3413 26.7251 84.0439 26.7251C85.9653 26.7251 87.4272 25.5862 87.4272 25.5862L86.8491 23.9373C86.8491 23.9373 85.5571 24.8892 84.1631 24.8892C82.769 24.8892 82.021 24.0222 82.021 22.9172C82.021 22.8152 82.021 22.7131 82.0381 22.5942H88.0049C88.0049 22.5942 88.311 21.6763 88.311 20.9282C88.311 19.0073 87.1724 17.6472 84.8433 17.6472C81.9531 17.6472 79.8281 20.0613 79.8281 23.0022ZM82.3779 21.1152C82.8032 20.0442 83.7041 19.3132 84.8091 19.3132C85.625 19.3132 86.186 19.8403 86.186 20.7412C86.186 20.9282 86.1523 21.1152 86.1523 21.1152H82.3779Z" fill="white"/>
<path d="M88.5493 26.5212H90.7085L91.3032 23.4441C91.7114 21.3022 93.2412 19.8572 94.5332 19.8572C94.8394 19.8572 95.0435 19.8911 95.0435 19.8911L95.4683 17.7661C95.4683 17.7661 95.2305 17.7322 94.9585 17.7322C93.6323 17.7322 92.4424 18.7861 91.8643 19.9761H91.8472C91.8472 19.9761 91.9492 19.6702 92.0171 19.3472L92.3062 17.8511H90.2324L88.5493 26.5212Z" fill="white"/>
<path fill-rule="evenodd" clip-rule="evenodd" d="M61.8984 24.5151C61.8984 25.9431 63.1226 26.7251 64.4653 26.7251C66.3013 26.7251 67.2876 25.1611 67.2876 25.1611H67.3213C67.3213 25.1611 67.2192 25.4331 67.1514 25.7903L67.0156 26.5212H69.0044L70.0415 21.1663C70.0923 20.8601 70.1265 20.5713 70.1265 20.3162C70.1265 18.3103 68.5283 17.6472 66.9473 17.6472C65.0776 17.6472 63.5137 18.5823 63.5137 18.5823L64.0234 20.2483C64.0234 20.2483 65.3325 19.4321 66.5732 19.4321C67.5596 19.4321 67.9673 19.8743 67.9673 20.6052C67.9673 20.7241 67.9507 20.8772 67.9165 21.0813H67.5933C65.2983 21.0813 61.8984 21.7441 61.8984 24.5151ZM64.0742 24.1411C64.0742 22.7131 66.3013 22.5603 67.2876 22.5603H67.6445L67.6104 22.7302C67.4062 23.7842 66.3354 25.0422 65.1963 25.0422C64.4316 25.0422 64.0742 24.6343 64.0742 24.1411Z" fill="white"/>
<path fill-rule="evenodd" clip-rule="evenodd" d="M57.3042 26.7251C54.6016 26.7251 53.0884 25.0933 53.0884 23.0022C53.0884 20.0613 55.2134 17.6472 58.1035 17.6472C60.4326 17.6472 61.5713 19.0073 61.5713 20.9282C61.5713 21.6763 61.2651 22.5942 61.2651 22.5942H55.2983C55.2812 22.7131 55.2812 22.8152 55.2812 22.9172C55.2812 24.0222 56.0293 24.8892 57.4233 24.8892C58.8174 24.8892 60.1094 23.9373 60.1094 23.9373L60.6875 25.5862C60.6875 25.5862 59.2256 26.7251 57.3042 26.7251ZM58.0693 19.3132C56.9644 19.3132 56.0635 20.0442 55.6382 21.1152H59.4126C59.4126 21.1152 59.4463 20.9282 59.4463 20.7412C59.4463 19.8403 58.8853 19.3132 58.0693 19.3132Z" fill="white"/>
<path d="M46.0938 26.5212H48.2529L48.8477 23.4441C49.2559 21.3022 50.7856 19.8572 52.0776 19.8572C52.3838 19.8572 52.5879 19.8911 52.5879 19.8911L53.0127 17.7661C53.0127 17.7661 52.7749 17.7322 52.5029 17.7322C51.1768 17.7322 49.9868 18.7861 49.4087 19.9761H49.3916C49.3916 19.9761 49.4937 19.6702 49.5615 19.3472L49.8506 17.8511H47.7769L46.0938 26.5212Z" fill="white"/>
<path d="M38.724 12H41.762L41.923 11.223H39.774L40.593 7.02998H39.69L38.724 12Z" fill="white"/>
<path d="M42.6663 12H43.5693L44.5353 7.02998H43.6393L42.6663 12Z" fill="white"/>
<path d="M44.8056 11.405C44.8056 11.405 45.3586 12.084 46.5346 12.084C47.5636 12.084 48.3126 11.384 48.3126 10.558C48.3126 9.17898 46.3666 9.17198 46.3666 8.45798C46.3666 8.07998 46.7936 7.77898 47.2486 7.77898C47.8856 7.77898 48.2986 8.14998 48.2986 8.14998L48.7886 7.48498C48.7886 7.48498 48.3126 6.94598 47.2556 6.94598C46.3106 6.94598 45.4566 7.56898 45.4566 8.45798C45.4566 9.80198 47.4026 9.82298 47.4026 10.558C47.4026 11.02 46.9406 11.251 46.5486 11.251C45.7996 11.251 45.3586 10.768 45.3586 10.768L44.8056 11.405Z" fill="white"/>
<path d="M50.1439 12H51.0399L51.8589 7.80698H53.4829L53.6299 7.02998H49.4859L49.3389 7.80698H50.9559L50.1439 12Z" fill="white"/>
<path d="M53.516 12H56.603L56.75 11.223H54.566L54.825 9.88598H56.498L56.652 9.10898H54.979L55.231 7.80698H57.303L57.457 7.02998H54.489L53.516 12Z" fill="white"/>
<path d="M57.7457 12H58.6417L59.2017 9.13698C59.2577 8.84298 59.2997 8.36698 59.2997 8.36698H59.3137C59.3137 8.36698 59.4467 8.84298 59.5797 9.13698L60.9027 12H61.7567L62.7227 7.02998H61.8267L61.2667 9.89998C61.2107 10.194 61.1687 10.67 61.1687 10.67H61.1547C61.1547 10.67 61.0287 10.187 60.8957 9.89998L59.5657 7.02998H58.7117L57.7457 12Z" fill="white"/>
<path d="M65.257 9.89998C65.257 11.167 66.146 12.084 67.518 12.084C69.016 12.084 70.465 10.705 70.465 9.08098C70.465 7.84198 69.562 6.94598 68.197 6.94598C66.685 6.94598 65.257 8.30398 65.257 9.89998ZM66.181 9.85098C66.181 8.70298 67.175 7.77198 68.19 7.77198C68.981 7.77198 69.534 8.32498 69.534 9.13698C69.534 10.313 68.519 11.258 67.525 11.258C66.734 11.258 66.181 10.684 66.181 9.85098Z" fill="white"/>
<path d="M71.07 12H71.966L72.526 9.13698C72.582 8.84298 72.624 8.36698 72.624 8.36698H72.638C72.638 8.36698 72.771 8.84298 72.904 9.13698L74.227 12H75.081L76.047 7.02998H75.151L74.591 9.89998C74.535 10.194 74.493 10.67 74.493 10.67H74.479C74.479 10.67 74.353 10.187 74.22 9.89998L72.89 7.02998H72.036L71.07 12Z" fill="white"/>
<rect x="7" y="6" width="22" height="22" rx="5" fill="url(#paint0_linear)"/>
<path d="M16.4235 20.7963C16.9979 22.5525 17.9196 24.1502 19.1122 25.5066C21.3454 25.2175 23.3092 24.0695 24.6616 22.4048C23.559 22.6958 22.4013 22.8508 21.2073 22.8508C20.2523 22.8508 19.3204 22.7493 18.4215 22.5607C17.4837 22.3703 16.7244 21.6887 16.4235 20.7963Z" fill="#1269FF"/>
<path d="M18 25.5781C18.3769 25.5781 18.7482 25.5538 19.1122 25.5067C17.9196 24.1502 16.9979 22.5526 16.4235 20.7963C16.3332 20.5282 16.2842 20.241 16.2842 19.9423C16.2842 19.272 16.531 18.6593 16.9388 18.1902C15.3782 19.9347 14.2639 22.0874 13.7769 24.4683C15.0236 25.1748 16.4647 25.5781 18 25.5781Z" fill="#5C9DFF"/>
<path d="M9.65997 19.0155C10.2223 21.351 11.7402 23.3142 13.7769 24.4683C14.2645 22.0842 15.3806 19.929 16.9445 18.1833C17.4342 17.6238 18.1541 17.2705 18.956 17.2705C19.134 17.2705 19.3079 17.2879 19.4761 17.3211C18.5816 17.1344 17.6546 17.0339 16.7047 17.0339C14.1231 17.0339 11.7108 17.7585 9.65997 19.0155Z" fill="#9EC6FF"/>
<path d="M19.4761 17.3211C18.5816 17.1344 17.6546 17.0338 16.7047 17.0338C14.1231 17.0338 11.7108 17.7585 9.65997 19.0154C9.50433 18.3691 9.42188 17.6942 9.42188 17C9.42188 14.3249 10.6464 11.9358 12.5655 10.3626C16.7719 11.6326 20.1084 14.9065 21.4792 19.0682C21.492 19.1048 21.504 19.1418 21.5152 19.1791C21.5034 19.1421 21.4914 19.1051 21.4792 19.0682C21.1706 18.184 20.411 17.5055 19.4761 17.3211Z" fill="#D1E3FF"/>
<path d="M26.1553 15.4526C26.1553 11.6563 22.9922 8.42187 17.9995 8.42188C15.937 8.42188 14.0444 9.14981 12.5648 10.3628C16.809 11.6448 20.1685 14.9616 21.5147 19.1791C21.5932 19.4259 21.6648 19.6885 21.7293 19.9412C24.1683 19.8873 26.1553 17.9038 26.1553 15.4526Z" fill="white"/>
<path fill-rule="evenodd" clip-rule="evenodd" d="M21.3178 20.0456C21.255 19.7995 21.1551 19.4415 21.079 19.2019C20.8174 18.4582 20.177 17.8894 19.3945 17.7349C19.246 17.7052 19.113 17.6918 18.956 17.6923C18.2807 17.6923 17.6749 17.9893 17.2619 18.4611C16.8983 18.8731 16.6982 19.3558 16.706 19.9423C16.7045 20.2054 16.7422 20.425 16.8233 20.6616C17.0766 21.4131 17.7194 21.9877 18.5081 22.1478C19.3866 22.3327 20.2751 22.4296 21.2073 22.429C22.3732 22.4299 23.477 22.282 24.5539 21.997L24.9014 21.9053L25.0817 22.5568L24.989 22.6709C23.5708 24.4166 21.5105 25.6216 19.1664 25.9251C18.789 25.9737 18.3907 25.9998 18 26C16.4073 25.9961 14.8616 25.5643 13.5689 24.8353C11.4328 23.6248 9.8401 21.5656 9.24982 19.1142C9.08919 18.4442 9.00078 17.7198 9 17C9 14.1932 10.2854 11.6862 12.2981 10.0363C13.833 8.78499 15.8604 8.00709 18 8C23.185 8 26.5777 11.3848 26.5777 15.4525C26.5777 18.1394 24.4004 20.306 21.7356 20.363L21.4006 20.3702L21.3178 20.0456ZM21.8812 18.9403C20.5749 14.8476 17.4646 11.6795 13.4625 10.2171C14.7632 9.33491 16.2977 8.83767 18 8.84375C22.7986 8.84375 25.7339 11.9266 25.7339 15.4525C25.7339 17.5599 24.1084 19.2917 22.0453 19.4995C21.9911 19.3037 21.931 19.097 21.8812 18.9403ZM9.84375 17C9.84375 14.5375 10.9345 12.3302 12.6607 10.8341C15.9433 11.8861 18.6334 14.132 20.2036 17.1113C19.9998 17.0209 19.7843 16.952 19.56 16.9076C18.6459 16.7175 17.6766 16.6126 16.7047 16.612C14.2747 16.6161 11.9458 17.2563 9.95493 18.3562C9.88062 17.916 9.8432 17.4686 9.84375 17ZM17.1069 17.4616C16.9321 17.592 16.7717 17.7403 16.6283 17.9039C15.1634 19.5466 14.0562 21.5888 13.4971 23.8017C11.89 22.7356 10.6829 21.1154 10.148 19.2149C12.0872 18.0837 14.2959 17.4514 16.7047 17.4557C16.8397 17.4556 16.9737 17.4576 17.1069 17.4616ZM18 25.1562C16.6322 25.1599 15.3856 24.839 14.2556 24.249C14.5809 22.8187 15.1348 21.492 15.8839 20.2914C15.9097 20.5127 15.9578 20.7317 16.0225 20.9274C16.5255 22.4592 17.3002 23.8998 18.2727 25.152C18.1827 25.1549 18.092 25.1563 18 25.1562ZM19.2803 25.0564C18.6811 24.3528 18.1614 23.5942 17.7261 22.7819C17.9199 22.8659 18.1241 22.9307 18.3362 22.9739C19.2551 23.1661 20.2299 23.2721 21.2073 23.2727C21.9537 23.2721 22.6962 23.2114 23.4182 23.0966C22.2789 24.11 20.8541 24.8084 19.2803 25.0564Z" fill="#003DAD"/>
<defs>
<linearGradient id="paint0_linear" x1="18" y1="6" x2="18" y2="28" gradientUnits="userSpaceOnUse">
<stop stop-color="#FF40C0"/>
<stop offset="1" stop-color="#FF7066"/>
</linearGradient>
</defs>
</svg>
